<svg width="47" height="50" viewBox="0 0 47 50" fill="none" xmlns="http://www.w3.org/2000/svg">
<path fill-rule="evenodd" clip-rule="evenodd" d="M45.3503 33.9488L46.1605 32.5696C46.6595 31.72 46.8693 30.7609 46.7778 29.8043C46.7913 29.7405 46.7984 29.6738 46.7984 29.6058V22.3179C46.7984 16.3564 44.4312 10.7508 40.1328 6.53501C35.8349 2.32088 30.1208 -0.000257015 24.0429 -0.000257015C17.9649 -0.000257015 12.2509 2.32088 7.95305 6.53501C3.65465 10.7508 1.2873 16.3564 1.2873 22.3179V30.1418C1.26925 30.985 1.48495 31.8199 1.9252 32.5696L2.708 33.9014C1.91105 34.3983 1.34065 35.1589 1.09495 36.0605C0.8355 37.0125 0.9685 38.0068 1.46995 38.8601L2.5227 40.6524C3.2175 41.8348 4.48215 42.4967 5.78075 42.4967C6.36715 42.4967 6.95995 42.3595 7.51085 42.077L7.70115 42.401C8.33645 43.4827 9.3624 44.2563 10.5898 44.5795C10.9996 44.6873 11.4156 44.7411 11.8288 44.7411C12.6532 44.7411 13.4666 44.5286 14.1997 44.1123L15.5767 43.3307C16.6769 42.7066 17.4643 41.6988 17.7931 40.4921C18.1222 39.2857 17.9533 38.0257 17.3179 36.9445L11.5421 27.113C10.9067 26.0309 9.8808 25.2577 8.65345 24.9345C8.3204 24.8468 7.9834 24.7969 7.6469 24.7805V22.3628C7.6469 15.2622 12.4825 8.90486 19.406 6.90267C19.9325 6.75035 20.2337 6.20721 20.0788 5.69051C19.9238 5.17212 19.3717 4.87707 18.8449 5.02902C15.1149 6.10773 11.7587 8.38646 9.39465 11.4455C6.9511 14.6074 5.65955 18.3825 5.65955 22.3628V24.9371C5.65955 24.9933 5.66535 25.0475 5.67465 25.1012C5.4589 25.1851 5.248 25.2855 5.0434 25.4013L3.66655 26.1829C3.53105 26.2597 3.40045 26.3423 3.2748 26.4309V22.3179C3.2748 11.0883 12.5912 1.95232 24.043 1.95232C35.4945 1.95232 44.8111 11.0883 44.8111 22.3179V26.4309C44.6854 26.3423 44.5547 26.2597 44.4192 26.1829L43.0424 25.4013C42.8379 25.2855 42.6268 25.1851 42.4112 25.1012C42.4205 25.0475 42.4264 24.9933 42.4264 24.9371V22.3628C42.4264 18.3401 41.1096 14.5322 38.6188 11.3523C36.207 8.27272 32.7927 6.00364 29.0051 4.96224C28.4771 4.81744 27.9283 5.12007 27.7805 5.63974C27.6326 6.15893 27.941 6.69831 28.4699 6.84353C35.5168 8.78062 40.4387 15.1627 40.4387 22.3628V24.7805C40.1025 24.7965 39.7654 24.8468 39.4324 24.9345C38.2048 25.2577 37.1789 26.0309 36.5436 27.113L30.7679 36.9445C30.1324 38.0257 29.9637 39.2862 30.2925 40.4921C30.6216 41.6988 31.4086 42.7066 32.5092 43.3307L33.8861 44.1123C34.6192 44.5286 35.4325 44.7411 36.2568 44.7411C36.6701 44.7411 37.0862 44.6873 37.4958 44.5795C38.7234 44.2563 39.7493 43.4827 40.3847 42.401L40.5529 42.1139C41.0493 42.3524 41.5851 42.477 42.1279 42.485V44.6773C42.1279 46.5354 40.5901 48.046 38.6998 48.046H27.6588V45.3119C27.6588 43.3736 26.0541 41.7966 24.0816 41.7966C22.1091 41.7966 20.5042 43.3736 20.5042 45.3119V49.0232C20.5042 49.5617 20.9493 49.9995 21.4981 49.9995H38.6998C41.686 49.9995 44.1155 47.612 44.1155 44.6773V41.9662C44.6615 41.648 45.1188 41.196 45.4449 40.6407L46.4979 38.8488C47.4879 37.1631 46.966 35.0221 45.3503 33.9488ZM4.66025 27.8748L6.0371 27.0932C6.4722 26.846 6.9478 26.7289 7.41745 26.7289C8.37555 26.7289 9.3085 27.2171 9.82095 28.0893L15.5969 37.9212C16.3606 39.2211 15.9056 40.8891 14.583 41.6396L13.206 42.4207C11.8833 43.1716 10.186 42.7242 9.42235 41.4243L3.6464 31.5928C2.88265 30.2933 3.3374 28.6249 4.66025 27.8748ZM3.7034 35.5963L6.51565 40.3829C6.1409 40.5546 5.7209 40.5915 5.3169 40.4849C4.86095 40.3653 4.47975 40.0774 4.2438 39.6761L3.19105 37.8838C2.95505 37.4821 2.89225 37.0141 3.01445 36.5659C3.12285 36.1688 3.3651 35.8297 3.7034 35.5963ZM25.6716 48.046H22.4918V45.3119C22.4918 44.4506 23.2051 43.7497 24.0818 43.7497C24.9583 43.7497 25.6716 44.4506 25.6716 45.3119V48.046ZM38.6636 41.4243C37.9 42.7242 36.2024 43.1713 34.8797 42.4207L33.5029 41.6396C32.1801 40.8891 31.7253 39.2211 32.4891 37.9208L38.2648 28.0893C38.7774 27.2171 39.7103 26.7289 40.6683 26.7289C41.1381 26.7289 41.6136 26.846 42.0486 27.0932L43.4256 27.8748C44.7484 28.6249 45.2031 30.2933 44.4394 31.5928L38.6636 41.4243ZM44.777 37.8716L43.7239 39.6644C43.4879 40.066 43.107 40.3536 42.651 40.4732C42.2825 40.5701 41.9013 40.5466 41.5529 40.4127L44.3507 35.65C45.0196 36.1776 45.2183 37.1203 44.777 37.8716ZM24.0429 4.29698C23.9949 4.29698 23.9478 4.2999 23.9016 4.3062C23.3548 4.3776 23.0326 4.83382 23.0324 5.2733C23.0322 5.74844 23.4065 6.24457 24.0328 6.25046H24.043C24.0765 6.25046 24.1096 6.24876 24.142 6.24579C24.651 6.20048 25.0555 5.77865 25.0532 5.26826C25.0508 4.73142 24.5899 4.29698 24.0429 4.29698ZM19.0042 30.321H19.0816C19.6304 30.321 20.0752 30.7584 20.0752 31.2977C20.0752 31.8371 19.6304 32.2745 19.0816 32.2745H19.0042C18.4554 32.2745 18.0103 31.8371 18.0103 31.2977C18.0103 30.7584 18.4554 30.321 19.0042 30.321ZM24.0818 30.321H24.0043C23.4555 30.321 23.0106 30.7584 23.0106 31.2977C23.0106 31.8371 23.4555 32.2745 24.0043 32.2745H24.0818C24.6303 32.2745 25.0753 31.8371 25.0753 31.2977C25.0753 30.7584 24.6303 30.321 24.0818 30.321ZM29.0042 30.321H29.0817C29.6304 30.321 30.0754 30.7584 30.0754 31.2977C30.0754 31.8371 29.6304 32.2745 29.0817 32.2745H29.0042C28.4555 32.2745 28.0105 31.8371 28.0105 31.2977C28.0105 30.7584 28.4555 30.321 29.0042 30.321Z" fill="#A9BCF9"/>
</svg>
