<svg width="428" height="999" viewBox="0 0 428 999" fill="none" xmlns="http://www.w3.org/2000/svg">
<path opacity="0.1" fill-rule="evenodd" clip-rule="evenodd" d="M352.66 822.499C400.197 798.862 435.479 736.667 425.459 678.757C422.667 662.623 412.165 622.063 379.446 604.483C338.034 582.233 255.572 617.814 230.184 619.695C152.571 625.443 65.6929 593.513 58.5033 554.375C47.4393 494.147 231.535 443.829 242.165 331.766C247.004 280.757 219.192 220.474 177.705 205.351C118.728 183.855 41.7136 267.464 16.8015 247.936C-11.9204 225.419 74.5924 102.23 32.8141 39.7822C3.03494 -4.72901 -79.3016 -9.76849 -134.926 15.4422C-226.373 56.8874 -255.605 184.908 -218.816 254.197C-200.784 288.158 -153.839 309.836 -157.967 324.869C-166.269 355.092 -343.905 317.077 -360.172 358.498C-368.587 379.923 -325.992 422.163 -247.956 488.574C-191.245 536.836 -128.035 588.864 -139.944 624.099C-151.73 658.967 -226.515 646.055 -240.865 682.153C-259.864 729.949 -166.726 839.039 -84.6182 831.985C-38.9759 828.063 -3.76645 776.207 20.6308 786.757C56.0258 802.061 16.7031 919.904 69.6641 970.026C111.342 1009.47 197.692 1006.51 222.335 970.88C247.157 934.988 198.163 875.62 223.948 844.877C246.935 817.469 306.742 845.331 352.66 822.499Z" fill="#FFD9D9"/>
</svg>
