<svg width="60" height="50" viewBox="0 0 60 50" fill="none" xmlns="http://www.w3.org/2000/svg">
<path fill-rule="evenodd" clip-rule="evenodd" d="M54.246 22.4606L55.7997 28.556C58.1744 28.9107 59.9999 30.9267 59.9998 33.3532V43.1818C59.9998 43.6905 59.5791 44.1031 59.0602 44.1031H55.9897C55.9899 44.1232 55.9913 44.1433 55.9913 44.1643C55.9913 47.382 53.3221 49.9995 50.0414 49.9995C46.7607 49.9995 44.0916 47.382 44.0916 44.1643C44.0916 44.1526 44.092 44.1412 44.0924 44.1298L44.0927 44.1211L44.0932 44.1031H22.921C22.9211 44.1173 22.9219 44.1315 22.9224 44.1461C22.9225 44.1521 22.9227 44.1582 22.9227 44.1643C22.9227 47.382 20.2534 49.9995 16.9728 49.9995C13.6921 49.9995 11.0229 47.382 11.0229 44.1643C11.0229 44.1524 11.0233 44.1407 11.0238 44.1291L11.0243 44.1142L11.0246 44.1031H5.94984C4.87922 44.1031 4.00818 43.2489 4.00818 42.1987V40.1718H0.939391C0.42046 40.1718 -6.49691e-05 39.7592 -6.49691e-05 39.2501C-6.49691e-05 38.7414 0.420586 38.3288 0.939391 38.3288H9.95809C10.4771 38.3288 10.8977 38.7414 10.8977 39.2501C10.8977 39.7592 10.477 40.1718 9.95809 40.1718H5.88722V42.1987C5.88722 42.2323 5.91526 42.26 5.94972 42.26H11.35C12.1567 39.9749 14.3717 38.3288 16.9728 38.3288C19.5738 38.3288 21.7888 39.9749 22.5956 42.26H42.0874V35.3193C42.0874 34.8097 42.508 34.3975 43.0267 34.3975C43.5457 34.3975 43.9663 34.8101 43.9663 35.3193V42.26H44.4187C45.2256 39.9749 47.4406 38.3292 50.0415 38.3292C52.6425 38.3292 54.8575 39.9749 55.6645 42.26H58.1209V38.2057H57.0561C55.4329 38.2057 54.1126 36.9109 54.1126 35.3193V33.3532C54.1126 32.8445 54.5332 32.4319 55.0519 32.4319H57.9733C57.5757 31.2222 56.418 30.3445 55.0544 30.3433L55.0529 30.3435L55.0513 30.3437L55.0498 30.3435L55.0483 30.3433H43.9664V31.388C43.9664 31.8972 43.5457 32.3098 43.0269 32.3098C42.508 32.3098 42.0875 31.8972 42.0875 31.388V14.6804C42.0875 14.6464 42.0595 14.6187 42.0249 14.6187H5.94972C5.91526 14.6187 5.88722 14.6464 5.88722 14.6804V31.388C5.88722 31.8963 5.46651 32.3093 4.94764 32.3093C4.42877 32.3093 4.00812 31.8963 4.00812 31.388V14.6804C4.00812 13.6298 4.8791 12.7757 5.94972 12.7757H19.1092L11.1124 9.63853C10.6306 9.44964 10.3962 8.91323 10.589 8.44063C10.7816 7.9684 11.3282 7.73838 11.8101 7.9277L18.3579 10.4961C16.3625 9.24019 14.3886 7.85885 13.6372 6.89223C12.1741 5.01137 12.5446 2.31287 14.4628 0.878218C16.3811 -0.556439 19.132 -0.193336 20.5951 1.6879C21.6641 3.06293 23.0745 6.92621 23.9874 9.64818C24.9003 6.92578 26.3107 3.06293 27.3798 1.6879C28.8428 -0.193336 31.5937 -0.556863 33.5119 0.878218C35.4301 2.31287 35.8007 5.01137 34.3376 6.89223C33.5861 7.85885 31.6121 9.24019 29.6167 10.4961L36.1645 7.9277C36.6467 7.73838 37.1931 7.9684 37.3858 8.44063C37.5784 8.91323 37.3442 9.44964 36.8624 9.63853L28.8656 12.7757H42.025C43.0956 12.7757 43.9665 13.6298 43.9665 14.6804V16.7073H51.0437C53.2193 16.7073 54.9895 18.4429 54.9895 20.5768V21.5595C54.9895 22.0023 54.6706 22.3725 54.246 22.4606ZM15.1311 5.77489C15.4565 6.19332 16.5558 7.2326 20.2616 9.49077C21.0097 9.94705 21.7387 10.3756 22.3727 10.742C21.4332 7.90756 20.0099 3.97421 19.1012 2.80524C18.6104 2.17481 17.8659 1.84319 17.1133 1.84319C16.5854 1.84319 16.0536 2.00606 15.6023 2.34308C14.5078 3.16204 14.2965 4.70116 15.1311 5.77489ZM28.8737 2.80524C27.9651 3.97421 26.5418 7.90756 25.6022 10.742C26.2365 10.3756 26.9654 9.94705 27.7133 9.49077C31.419 7.2326 32.5181 6.19332 32.8437 5.77489C33.6782 4.70116 33.4669 3.16204 32.3724 2.34308C31.278 1.52461 29.7084 1.73242 28.8737 2.80524ZM51.0437 18.55H43.9665V20.6382H53.1106V20.5768C53.1106 19.4591 52.1834 18.55 51.0437 18.55ZM43.9665 22.4808V28.5007H53.8488L52.3144 22.4808H43.9665ZM12.9019 44.1643C12.9019 46.3658 14.7281 48.1573 16.9728 48.1573C19.2174 48.1573 21.0438 46.3658 21.0438 44.1643C21.0438 41.9628 19.2174 40.1718 16.9728 40.1718C14.7281 40.1718 12.9019 41.9628 12.9019 44.1643ZM45.9707 44.1643C45.9707 46.3658 47.797 48.1573 50.0416 48.1573C52.2863 48.1573 54.1126 46.3658 54.1126 44.1643C54.1126 41.9628 52.2863 40.1718 50.0416 40.1718C47.797 40.1718 45.9707 41.9628 45.9707 44.1643ZM57.0563 36.3631H58.1209V34.2745H55.9915V35.3193C55.9915 35.8947 56.4692 36.3631 57.0563 36.3631ZM15.0312 44.1643C15.0312 43.1142 15.9021 42.26 16.9728 42.26C18.0434 42.26 18.9144 43.1142 18.9144 44.1643C18.9144 45.2141 18.0434 46.0687 16.9728 46.0687C15.9021 46.0687 15.0312 45.2141 15.0312 44.1643ZM50.0416 42.26C48.9712 42.26 48.1001 43.1142 48.1001 44.1643C48.1001 45.2141 48.9712 46.0687 50.0416 46.0687C51.1122 46.0687 51.9832 45.2141 51.9832 44.1643C51.9832 43.1142 51.1122 42.26 50.0416 42.26ZM24.9895 38.3288H39.0187C39.5375 38.3288 39.9581 38.7414 39.9581 39.2501C39.9581 39.7592 39.5374 40.1718 39.0187 40.1718H24.9895C24.4705 40.1718 24.0499 39.7592 24.0499 39.2501C24.0499 38.7414 24.4706 38.3288 24.9895 38.3288ZM14.9687 34.3975H2.94355C2.4248 34.3975 2.00403 34.8097 2.00403 35.3193C2.00403 35.828 2.42468 36.2406 2.94355 36.2406H14.9687C15.4874 36.2406 15.9081 35.828 15.9081 35.3193C15.9081 34.8097 15.4874 34.3975 14.9687 34.3975ZM10.9603 20.6382H14.9687C15.4874 20.6382 15.908 21.0508 15.9081 21.5595C15.9081 22.0686 15.4874 22.4808 14.9687 22.4808H11.8997V24.569H13.9665C14.4855 24.569 14.906 24.9816 14.906 25.4907C14.906 25.9998 14.4853 26.4125 13.9665 26.4125H11.8997V29.422C11.8997 29.9307 11.4792 30.3433 10.9603 30.3433C10.4413 30.3433 10.0207 29.9307 10.0207 29.422V21.5595C10.0207 21.0508 10.4415 20.6382 10.9603 20.6382ZM22.3619 26.8443C23.3021 26.2399 23.9248 25.1986 23.9248 24.0162C23.9248 22.1534 22.3796 20.6382 20.48 20.6382H17.9748C17.456 20.6382 17.0354 21.0508 17.0354 21.5595V29.422C17.0354 29.9307 17.4559 30.3433 17.9748 30.3433C18.4937 30.3433 18.9144 29.9307 18.9144 29.422V27.3946H20.4783L22.2035 29.9332C22.3846 30.1993 22.6823 30.3433 22.9859 30.3433C23.1652 30.3433 23.3461 30.2933 23.5062 30.1888C23.938 29.9063 24.0547 29.3342 23.7667 28.9111L22.3619 26.8443ZM20.48 25.5524H18.9144V22.4808H20.48C21.3435 22.4808 22.0458 23.17 22.0458 24.0162C22.0458 24.8632 21.3435 25.5524 20.48 25.5524ZM29.9999 28.5007H26.9309V26.4095C26.9349 26.4096 26.9388 26.4098 26.9427 26.4101C26.9466 26.4103 26.9504 26.4105 26.9543 26.4108C26.9673 26.4116 26.9804 26.4125 26.9935 26.4125H28.9978C29.5165 26.4125 29.9372 25.9998 29.9372 25.4907C29.9372 24.9816 29.5166 24.5694 28.9978 24.5694H26.9935C26.9724 24.5694 26.9518 24.5711 26.9309 24.5723V22.4808H29.9999C30.5186 22.4808 30.9394 22.0686 30.9394 21.5595C30.9394 21.0508 30.5188 20.6382 29.9999 20.6382H25.9915C25.4727 20.6382 25.0521 21.0508 25.0521 21.5595V29.422C25.0521 29.9307 25.4727 30.3433 25.9915 30.3433H29.9999C30.5186 30.3433 30.9394 29.9307 30.9394 29.422C30.9394 28.9133 30.5186 28.5007 29.9999 28.5007ZM33.9456 28.5007H37.0146C37.5333 28.5007 37.954 28.9133 37.954 29.422C37.954 29.9307 37.5333 30.3433 37.0146 30.3433H33.0061C32.4871 30.3433 32.0666 29.9307 32.0666 29.422V21.5595C32.0666 21.0508 32.4873 20.6382 33.0061 20.6382H37.0146C37.5334 20.6382 37.954 21.0508 37.954 21.5595C37.954 22.0686 37.5333 22.4808 37.0146 22.4808H33.9456V24.5694H35.0104C35.5292 24.5694 35.9498 24.9816 35.9498 25.4907C35.9498 25.9998 35.5291 26.4125 35.0104 26.4125H33.9456V28.5007Z" fill="#A9BCF9"/>
</svg>
