<svg width="18" height="18" viewBox="0 0 18 18" fill="none" xmlns="http://www.w3.org/2000/svg">
<path fill-rule="evenodd" clip-rule="evenodd" d="M5.81642 14.9367C6.66855 14.9367 7.33095 15.6268 7.33095 16.4679C7.33095 17.3091 6.63137 18.0004 5.81642 18.0004C5.00139 18.0004 4.30181 17.3091 4.30181 16.4679C4.30181 15.6268 5.00139 14.9367 5.81642 14.9367ZM5.81642 17.2318C6.24432 17.2318 6.5532 16.8864 6.5532 16.4641C6.5532 16.0419 6.20347 15.6964 5.81642 15.6964C5.4294 15.6964 5.07967 16.0419 5.07967 16.4641C5.07967 16.8864 5.4294 17.2318 5.81642 17.2318ZM14.0815 14.9367C14.9337 14.9367 15.596 15.6268 15.596 16.4679C15.596 17.3091 14.8964 18.0004 14.0815 18.0004C13.2293 18.0004 12.5668 17.3091 12.5668 16.4679C12.5668 15.6268 13.2665 14.9367 14.0815 14.9367ZM14.0815 17.2318C14.5094 17.2318 14.8184 16.8864 14.8184 16.4641C14.8184 16.0419 14.4685 15.6964 14.0815 15.6964C13.6535 15.6964 13.3447 16.0419 13.3447 16.4641C13.3447 16.8906 13.6908 17.2318 14.0815 17.2318ZM2.16955 -2.02656e-06L3.4285 2.57171H18L15.4286 10.2852C16.3701 10.4216 17.0918 11.45 17.139 12.459C17.1907 13.5642 15.9881 14.5812 14.887 14.5825H4.28921L4.34278 13.7501H14.8964C15.5551 13.7501 16.0612 13.2133 16.0612 12.5224C16.0612 11.8319 15.1929 11.1427 14.5714 11.1427L4.34278 11.2955L4.28566 11.1427L1.55168 0.764322H-2.39611e-05V-2.02656e-06H2.16955ZM5.14283 10.2852H14.5714L16.2857 3.42839H3.4285L5.14283 10.2852Z" fill="black"/>
</svg>
