<svg width="50" height="50" viewBox="0 0 50 50" fill="none" xmlns="http://www.w3.org/2000/svg">
<path fill-rule="evenodd" clip-rule="evenodd" d="M48.3465 29.2864H47.5741V22.5467C47.5741 21.4797 47.026 20.5349 46.1887 19.9611V19.0431C46.1887 17.7122 45.0708 16.6292 43.6967 16.6292H43.1198L45.3265 13.493C46.0661 12.4411 45.7849 11.0031 44.6996 10.2866L29.7262 0.401854C29.2005 0.05428 28.5667 -0.073715 27.9414 0.0412951C27.3162 0.156305 26.7747 0.499639 26.4164 1.00876L13.4923 19.3798H9.89604L10.7638 10.8713C10.7736 10.7756 10.8377 10.6925 10.9275 10.6597C12.0453 10.2518 13.0142 9.48913 13.6554 8.51324C13.7059 8.43602 13.8011 8.39235 13.8998 8.40199L19.5405 8.9418C19.945 8.97953 20.3048 8.69455 20.3447 8.30251C20.3847 7.91132 20.0893 7.5621 19.6851 7.52352L14.0444 6.98371C13.3896 6.92202 12.7651 7.21373 12.4143 7.74802C11.9429 8.46623 11.2306 9.02612 10.4086 9.32668C9.79004 9.55209 9.36527 10.0906 9.29993 10.7311L8.418 19.3798H7.48019L8.85233 5.92302C8.90179 5.43823 9.3481 5.08313 9.84868 5.13141L21.2476 6.22231C21.6518 6.2601 22.0118 5.97507 22.0518 5.58303C22.0918 5.19183 21.7965 4.84304 21.3922 4.80403L9.99329 3.71356C8.68628 3.58806 7.51772 4.51693 7.38849 5.78284L6.28247 16.6292H4.39873C3.02475 16.6292 1.90679 17.7122 1.90679 19.0431V19.6694C0.78262 20.171 -2.02656e-06 21.2715 -2.02656e-06 22.5467V46.833C-2.02656e-06 48.5791 1.46631 49.9995 3.26889 49.9995H44.3052C46.1078 49.9995 47.5741 48.5791 47.5741 46.833V40.0933H48.3465C49.2582 40.0933 49.9999 39.3751 49.9999 38.492V30.8877C50 30.005 49.2582 29.2864 48.3465 29.2864ZM43.6967 18.0542C44.2598 18.0542 44.7178 18.4979 44.7178 19.0431V19.4071C44.5825 19.3898 44.4451 19.3806 44.3052 19.3806H41.1848L42.1175 18.0542H43.6967ZM27.6319 1.81171C27.7688 1.61699 27.9761 1.4856 28.2152 1.4415C28.2724 1.43058 28.3299 1.42555 28.3867 1.42555C28.5679 1.42555 28.7448 1.47802 28.8979 1.5792L43.8713 11.4635C44.2863 11.7377 44.3942 12.2883 44.1112 12.6904L39.4047 19.3798H38.2752L40.5828 16.1003C40.9569 15.5682 40.9878 14.8915 40.663 14.3333C40.2313 13.592 40.0564 12.7194 40.1702 11.8757C40.2549 11.2478 39.9698 10.635 39.4263 10.2765L31.6641 5.1524C31.1205 4.79354 30.4274 4.76121 29.8555 5.06675C29.0867 5.47772 28.1843 5.63931 27.3143 5.52134C26.6692 5.43362 26.0147 5.71569 25.6459 6.23996L16.402 19.3798H15.2725L27.6319 1.81171ZM27.9557 13.9102C24.753 13.9102 22.1237 16.3291 21.9095 19.3798H18.1817L26.8613 7.04206C26.8614 7.04206 26.8614 7.04206 26.8614 7.04206C26.9108 6.97195 26.9925 6.92997 27.0765 6.92997C27.0877 6.92997 27.0988 6.93082 27.11 6.93251C28.2934 7.09284 29.5207 6.87374 30.5662 6.31464C30.6486 6.27017 30.7542 6.27606 30.8356 6.33017L38.598 11.4543C38.6792 11.5081 38.7238 11.6008 38.7117 11.6915C38.5568 12.8386 38.7949 14.0252 39.3819 15.0338C39.429 15.1144 39.4232 15.2181 39.3673 15.2978L36.4955 19.3798H34.0021C33.7877 16.3291 31.1587 13.9102 27.9557 13.9102ZM32.5273 19.3798H23.3843C23.595 17.1157 25.5642 15.3348 27.9557 15.3348C30.3473 15.3348 32.3166 17.1157 32.5273 19.3798ZM3.3777 19.0431C3.3777 18.4979 3.83573 18.0542 4.39873 18.0542H6.13721L6.00194 19.3798H3.3777V19.0431ZM1.4709 22.5467C1.4709 21.5863 2.27745 20.8052 3.26889 20.8052H44.3052C45.2966 20.8052 46.1032 21.5863 46.1032 22.5467V24.5236H1.4709V22.5467ZM46.1032 46.833C46.1032 47.7934 45.2966 48.5749 44.3052 48.5749H3.26889C2.27745 48.5749 1.4709 47.7934 1.4709 46.833V44.8561H5.43693C5.84323 44.8561 6.17236 44.5371 6.17236 44.1438C6.17236 43.7501 5.84312 43.4319 5.43693 43.4319H1.4709V25.9486H46.1032V29.2864H39.1104H39.1103C36.9069 29.2864 34.9985 30.5305 34.0927 32.3311C34.0897 32.3374 34.0863 32.3433 34.0831 32.3492C34.0755 32.3647 34.0688 32.3807 34.0613 32.3958C33.9535 32.6182 33.8598 32.8478 33.7834 33.085C33.7832 33.0858 33.783 33.0858 33.7827 33.0871C33.62 33.5937 33.5322 34.1322 33.5322 34.6905C33.5322 37.6698 36.0345 40.0933 39.1103 40.0933H46.103V43.4311H10.1462C9.73992 43.4311 9.41069 43.7501 9.41069 44.1438C9.41069 44.5371 9.73992 44.8561 10.1462 44.8561H46.1032V46.833ZM48.529 38.492C48.529 38.5898 48.4473 38.6688 48.3465 38.6688H39.1105C37.5534 38.6688 36.196 37.8251 35.4997 36.5847C35.4681 36.5285 35.4379 36.4719 35.4089 36.4139C35.3512 36.2972 35.2989 36.1784 35.2529 36.0567C35.0915 35.6303 35.0033 35.1698 35.0033 34.6905C35.0033 34.2099 35.0916 33.7502 35.2529 33.323C35.299 33.2013 35.3512 33.0829 35.4089 32.9666C35.4379 32.9083 35.4681 32.8516 35.4997 32.7953C36.196 31.555 37.5534 30.7114 39.1105 30.7114H48.3465C48.4471 30.7114 48.529 30.7907 48.529 30.8877V38.492ZM39.2827 31.7993C37.6373 31.7993 36.2988 33.0963 36.2988 34.6905C36.2988 36.2838 37.6373 37.5803 39.2827 37.5803C40.9282 37.5803 42.2667 36.2838 42.2667 34.6905C42.2667 33.0963 40.9282 31.7993 39.2827 31.7993ZM39.2827 36.1558C38.4485 36.1558 37.7697 35.4985 37.7697 34.6905C37.7697 33.8821 38.4485 33.2243 39.2827 33.2243C40.117 33.2243 40.7959 33.8816 40.7959 34.6905C40.7959 35.4985 40.117 36.1558 39.2827 36.1558Z" fill="#A9BCF9"/>
</svg>
