<svg width="84" height="38" viewBox="0 0 84 38" fill="none" xmlns="http://www.w3.org/2000/svg">
<path d="M1.944 18H12.624V14.904H5.448V11.376H11.544V8.328H5.448V4.56H12.408V1.464H1.944V18ZM21.1001 9.648L27.3641 1.464H23.2361L19.3241 6.888V1.464H15.7721V18H19.3241V12.384L24.2921 18H28.8521L21.1001 9.648ZM30.3971 1.464V18H33.9011V1.464H30.3971ZM44.4999 4.56C45.8439 4.56 46.4919 5.856 46.4919 6.888C46.4919 7.944 45.7719 9.216 44.4039 9.216H41.3079V4.56H44.4999ZM37.7799 18H41.3079V12.288H44.5719C48.3399 12.288 50.0199 9.648 50.0199 6.888C50.0199 4.176 48.3399 1.464 44.5719 1.464H37.7799V18ZM51.6341 13.152C51.6341 16.128 54.0581 18.264 57.6341 18.264C60.5861 18.264 63.5141 16.68 63.5861 13.416C63.6581 11.856 63.0581 9.576 59.0501 8.424L57.0821 7.8C55.4501 7.344 55.3061 6.552 55.3061 6.12C55.3061 5.136 56.2181 4.464 57.4421 4.464C58.8581 4.464 59.5781 5.208 59.5781 6.336H63.0821C63.0821 3.168 60.6821 1.272 57.4901 1.272C54.3221 1.272 51.8021 3.264 51.8021 6.216C51.8021 7.728 52.4261 9.816 56.0741 10.968L58.0661 11.52C59.7221 12 60.0821 12.648 60.0581 13.392C60.0341 14.472 59.0741 15.144 57.6341 15.144C56.0261 15.144 55.2341 14.208 55.1621 13.152H51.6341ZM69.0349 9.768C69.0349 7.008 71.1469 4.752 73.9069 4.752C76.6429 4.752 78.8029 7.008 78.8029 9.768C78.8029 12.528 76.6429 14.76 73.9069 14.76C71.1469 14.76 69.0349 12.528 69.0349 9.768ZM65.5309 9.768C65.5309 14.424 69.2269 18.24 73.9069 18.24C78.6109 18.24 82.3069 14.424 82.3069 9.768C82.3069 5.088 78.6109 1.272 73.9069 1.272C69.2269 1.272 65.5309 5.088 65.5309 9.768Z" fill="#FF6D53"/>
<path d="M1.133 35H5.467V34.505H1.628V31.524H4.873V31.029H1.628V27.916H5.335V27.421H1.133V35ZM8.51855 34.439L6.61555 29.863H6.07655L8.23255 35H8.81555L10.9826 29.863H10.4436L8.51855 34.439ZM14.2966 30.248C15.4076 30.248 16.2106 30.996 16.3096 32.184H12.2176C12.3056 30.996 13.2076 30.248 14.2966 30.248ZM16.8156 32.415C16.8156 30.787 15.7596 29.753 14.2966 29.753C12.8556 29.753 11.7116 30.787 11.7116 32.415C11.7116 34.043 12.8556 35.11 14.2966 35.11C15.2756 35.11 16.1226 34.637 16.5626 33.801L16.0896 33.636C15.7266 34.252 15.0776 34.615 14.2966 34.615C13.1966 34.615 12.3056 33.845 12.2176 32.646H16.8046C16.8156 32.569 16.8156 32.492 16.8156 32.415ZM18.7249 35V33.02C18.7249 31.788 19.0989 30.259 20.4079 30.259C20.5839 30.259 20.8259 30.281 21.0789 30.38L21.1669 29.896C20.9579 29.808 20.6719 29.753 20.4079 29.753C19.5169 29.753 18.9559 30.325 18.7249 31.194V29.863H18.2189V35H18.7249ZM26.5695 29.863H26.0305L24.1055 34.395L22.1915 29.863H21.6635L23.8305 35.022L22.8075 37.486H23.3025L26.5695 29.863ZM30.674 35H34.491V34.505H31.169V27.421H30.674V35ZM35.7287 29.863V35H36.2237V29.863H35.7287ZM35.5307 27.96C35.5307 28.191 35.7177 28.367 35.9707 28.367C36.2237 28.367 36.3997 28.191 36.3997 27.96C36.3997 27.729 36.2237 27.553 35.9707 27.553C35.7177 27.553 35.5307 27.729 35.5307 27.96ZM40.0725 29.863H38.8735V27.795H38.3785V29.863H37.4435V30.314H38.3785V35H38.8735V30.314H40.0725V29.863ZM43.2951 29.863H42.0961V27.795H41.6011V29.863H40.6661V30.314H41.6011V35H42.0961V30.314H43.2951V29.863ZM45.0108 35V26.937H44.5158V35H45.0108ZM49.0906 30.248C50.2016 30.248 51.0046 30.996 51.1036 32.184H47.0116C47.0996 30.996 48.0016 30.248 49.0906 30.248ZM51.6096 32.415C51.6096 30.787 50.5536 29.753 49.0906 29.753C47.6496 29.753 46.5056 30.787 46.5056 32.415C46.5056 34.043 47.6496 35.11 49.0906 35.11C50.0696 35.11 50.9166 34.637 51.3566 33.801L50.8836 33.636C50.5206 34.252 49.8716 34.615 49.0906 34.615C47.9906 34.615 47.0996 33.845 47.0116 32.646H51.5986C51.6096 32.569 51.6096 32.492 51.6096 32.415ZM61.2357 27.421V30.996H56.6817V27.421H56.1867V35H56.6817V31.469H61.2357V35H61.7307V27.421H61.2357ZM65.9236 30.248C67.0346 30.248 67.8376 30.996 67.9366 32.184H63.8446C63.9326 30.996 64.8346 30.248 65.9236 30.248ZM68.4426 32.415C68.4426 30.787 67.3866 29.753 65.9236 29.753C64.4826 29.753 63.3386 30.787 63.3386 32.415C63.3386 34.043 64.4826 35.11 65.9236 35.11C66.9026 35.11 67.7496 34.637 68.1896 33.801L67.7166 33.636C67.3536 34.252 66.7046 34.615 65.9236 34.615C64.8236 34.615 63.9326 33.845 63.8446 32.646H68.4316C68.4426 32.569 68.4426 32.492 68.4426 32.415ZM70.3409 35V26.937H69.8459V35H70.3409ZM72.6937 29.863H72.1877V37.486H72.6937V33.911C73.1227 34.659 73.9477 35.11 74.8717 35.11C76.3347 35.11 77.5227 33.988 77.5227 32.448C77.5227 30.897 76.3347 29.753 74.8717 29.753C73.9477 29.753 73.1227 30.226 72.6937 30.974V29.863ZM77.0167 32.448C77.0167 33.691 76.0597 34.604 74.8717 34.604C73.6727 34.604 72.6937 33.68 72.6937 32.393C72.7267 31.117 73.6947 30.259 74.8717 30.259C76.0597 30.259 77.0167 31.216 77.0167 32.448ZM80.428 29.753C79.625 29.753 78.888 30.215 78.8 30.919C78.679 32.074 79.449 32.382 80.065 32.525L80.813 32.701C81.473 32.866 81.693 33.229 81.693 33.636C81.693 34.241 81.209 34.626 80.417 34.626C79.504 34.626 79.185 34.098 79.042 33.691H78.58C78.701 34.615 79.548 35.11 80.384 35.11C81.451 35.11 82.188 34.516 82.188 33.636C82.188 32.987 81.858 32.448 80.923 32.217L80.186 32.041C79.757 31.953 79.207 31.7 79.295 30.985C79.372 30.545 79.845 30.237 80.428 30.237C80.989 30.237 81.429 30.545 81.517 31.04H82.012C81.913 30.193 81.264 29.753 80.428 29.753Z" fill="#494949"/>
</svg>
